<svg xmlns="http://www.w3.org/2000/svg" xmlns:xlink="http://www.w3.org/1999/xlink" width="528" zoomAndPan="magnify" viewBox="0 0 396 393.74999" height="525" preserveAspectRatio="xMidYMid meet" version="1.0"><defs><g/><clipPath id="c9fd5b5866"><path d="M 44.390625 52.328125 L 351.386719 52.328125 L 351.386719 340.71875 L 44.390625 340.71875 Z M 44.390625 52.328125 " clip-rule="nonzero"/></clipPath><clipPath id="6347743b5e"><path d="M 63.128906 52.328125 L 332.648438 52.328125 C 342.996094 52.328125 351.386719 60.714844 351.386719 71.066406 L 351.386719 321.980469 C 351.386719 332.328125 342.996094 340.71875 332.648438 340.71875 L 63.128906 340.71875 C 52.777344 340.71875 44.390625 332.328125 44.390625 321.980469 L 44.390625 71.066406 C 44.390625 60.714844 52.777344 52.328125 63.128906 52.328125 Z M 63.128906 52.328125 " clip-rule="nonzero"/></clipPath></defs><g clip-path="url(#c9fd5b5866)"><g clip-path="url(#6347743b5e)"><path fill="#24283b" d="M 44.390625 52.328125 L 351.386719 52.328125 L 351.386719 340.71875 L 44.390625 340.71875 Z M 44.390625 52.328125 " fill-opacity="1" fill-rule="nonzero"/></g></g><g fill="#ff00ff" fill-opacity="1"><g transform="translate(77.061992, 276.582939)"><g><path d="M 248.6875 -152.5625 L 198.765625 0 L 160.84375 0 L 127.28125 -103.3125 L 92.625 0 L 54.921875 0 L 4.796875 -152.5625 L 41.40625 -152.5625 L 75.84375 -45.328125 L 111.8125 -152.5625 L 144.5 -152.5625 L 179.375 -44.46875 L 214.90625 -152.5625 Z M 248.6875 -152.5625 "/></g></g></g><g fill="#00ffff" fill-opacity="1"><g transform="translate(65.212321, 280.663101)"><g><path d="M 248.6875 -152.5625 L 198.765625 0 L 160.84375 0 L 127.28125 -103.3125 L 92.625 0 L 54.921875 0 L 4.796875 -152.5625 L 41.40625 -152.5625 L 75.84375 -45.328125 L 111.8125 -152.5625 L 144.5 -152.5625 L 179.375 -44.46875 L 214.90625 -152.5625 Z M 248.6875 -152.5625 "/></g></g></g><g fill="#e4f0fb" fill-opacity="1"><g transform="translate(71.137159, 278.623021)"><g><path d="M 248.6875 -152.5625 L 198.765625 0 L 160.84375 0 L 127.28125 -103.3125 L 92.625 0 L 54.921875 0 L 4.796875 -152.5625 L 41.40625 -152.5625 L 75.84375 -45.328125 L 111.8125 -152.5625 L 144.5 -152.5625 L 179.375 -44.46875 L 214.90625 -152.5625 Z M 248.6875 -152.5625 "/></g></g></g><g fill="#fbfaf8" fill-opacity="1"><g transform="translate(289.721887, 305.640558)"><g><path d="M 16.765625 -46.199219 L 16.765625 -52.632812 L 7.308594 -52.632812 L 7.308594 0 L 16.765625 0 L 16.765625 -28.558594 C 16.765625 -38.207031 24.171875 -45.320312 33.039062 -45.320312 C 34.601562 -45.320312 36.257812 -45.125 37.914062 -44.640625 L 37.914062 -53.019531 C 35.769531 -53.507812 33.722656 -53.800781 31.675781 -53.800781 C 25.828125 -53.800781 20.566406 -51.460938 16.765625 -46.199219 Z M 16.765625 -46.199219 "/></g></g></g></svg>