<svg xmlns="http://www.w3.org/2000/svg" xmlns:xlink="http://www.w3.org/1999/xlink" width="489" zoomAndPan="magnify" viewBox="0 0 366.75 368.250002" height="491" preserveAspectRatio="xMidYMid meet" version="1.0"><defs><g/><clipPath id="b8700ea30a"><path d="M 39.765625 48.183594 L 327.511719 48.183594 L 327.511719 318.996094 L 39.765625 318.996094 Z M 39.765625 48.183594 " clip-rule="nonzero"/></clipPath><clipPath id="dbb7081e5a"><path d="M 58.488281 48.183594 L 308.785156 48.183594 C 319.128906 48.183594 327.511719 56.570312 327.511719 66.910156 L 327.511719 300.269531 C 327.511719 310.613281 319.128906 318.996094 308.785156 318.996094 L 58.488281 318.996094 C 48.148438 318.996094 39.765625 310.613281 39.765625 300.269531 L 39.765625 66.910156 C 39.765625 56.570312 48.148438 48.183594 58.488281 48.183594 Z M 58.488281 48.183594 " clip-rule="nonzero"/></clipPath></defs><g clip-path="url(#b8700ea30a)"><g clip-path="url(#dbb7081e5a)"><path fill="#e4f0fb" d="M 39.765625 48.183594 L 327.511719 48.183594 L 327.511719 318.996094 L 39.765625 318.996094 Z M 39.765625 48.183594 " fill-opacity="1" fill-rule="nonzero"/></g></g><g fill="#ff00ff" fill-opacity="1"><g transform="translate(67.731691, 259.293945)"><g><path d="M 233.078125 -143 L 186.296875 0 L 150.765625 0 L 119.296875 -96.828125 L 86.8125 0 L 51.484375 0 L 4.5 -143 L 38.8125 -143 L 71.09375 -42.484375 L 104.796875 -143 L 135.4375 -143 L 168.125 -41.671875 L 201.421875 -143 Z M 233.078125 -143 "/></g></g></g><g fill="#00ffff" fill-opacity="1"><g transform="translate(61.936904, 261.289246)"><g><path d="M 233.078125 -143 L 186.296875 0 L 150.765625 0 L 119.296875 -96.828125 L 86.8125 0 L 51.484375 0 L 4.5 -143 L 38.8125 -143 L 71.09375 -42.484375 L 104.796875 -143 L 135.4375 -143 L 168.125 -41.671875 L 201.421875 -143 Z M 233.078125 -143 "/></g></g></g><g fill="#24283b" fill-opacity="1"><g transform="translate(64.834297, 260.291594)"><g><path d="M 233.078125 -143 L 186.296875 0 L 150.765625 0 L 119.296875 -96.828125 L 86.8125 0 L 51.484375 0 L 4.5 -143 L 38.8125 -143 L 71.09375 -42.484375 L 104.796875 -143 L 135.4375 -143 L 168.125 -41.671875 L 201.421875 -143 Z M 233.078125 -143 "/></g></g></g><g fill="#24283b" fill-opacity="1"><g transform="translate(269.713269, 285.615057)"><g><path d="M 15.714844 -43.300781 L 15.714844 -49.332031 L 6.851562 -49.332031 L 6.851562 0 L 15.714844 0 L 15.714844 -26.765625 C 15.714844 -35.8125 22.65625 -42.480469 30.96875 -42.480469 C 32.429688 -42.480469 33.984375 -42.296875 35.535156 -41.839844 L 35.535156 -49.695312 C 33.527344 -50.152344 31.609375 -50.425781 29.691406 -50.425781 C 24.207031 -50.425781 19.277344 -48.234375 15.714844 -43.300781 Z M 15.714844 -43.300781 "/></g></g></g></svg>